<?xml version="1.0" standalone="no"?>
<!DOCTYPE svg PUBLIC "-//W3C//DTD SVG 20010904//EN"
 "http://www.w3.org/TR/2001/REC-SVG-20010904/DTD/svg10.dtd">
<svg version="1.0" xmlns="http://www.w3.org/2000/svg"
 width="221.000000pt" height="199.000000pt" viewBox="0 0 221.000000 199.000000"
 preserveAspectRatio="xMidYMid meet">

<g transform="translate(0.000000,199.000000) scale(0.100000,-0.100000)"
fill="#1FD1FE" stroke="none">
<path d="M1805 1851 c-126 -76 -336 -201 -466 -278 l-237 -140 -453 270 c-250
148 -460 271 -467 274 -9 4 -12 -86 -12 -432 l0 -437 -80 -89 -80 -89 0 -153
0 -152 207 -118 c113 -64 208 -116 209 -114 2 2 4 252 4 555 1 381 4 552 11
552 6 0 157 -83 336 -185 l325 -185 325 185 c179 102 329 185 334 185 5 0 9
-246 9 -559 l0 -560 63 38 c34 21 128 75 210 121 l147 83 0 155 0 154 -77 88
-78 87 0 442 c0 242 0 441 0 441 0 -1 -103 -63 -230 -139z"/>
<path d="M1415 489 c-132 -77 -256 -150 -276 -161 l-37 -21 -268 154 c-147 85
-272 156 -276 157 -4 2 -8 -65 -8 -150 l1 -153 275 -156 276 -157 279 160 279
160 0 154 c0 85 -1 154 -2 153 -2 0 -111 -64 -243 -140z"/>
</g>
</svg>
